<?xml version="1.0" encoding="utf-8"?>
<!-- Generator: Adobe Illustrator 25.0.1, SVG Export Plug-In . SVG Version: 6.00 Build 0)  -->
<svg version="1.1" id="Capa_1" xmlns="http://www.w3.org/2000/svg" xmlns:xlink="http://www.w3.org/1999/xlink" x="0px" y="0px"
	 viewBox="0 0 236.02 59.81" enable-background="new 0 0 236.02 59.81" xml:space="preserve">
<g>
	<path fill="#0C9B9B" d="M65.97,54.78v0.67c-0.26-0.13-0.51-0.22-0.74-0.28c-0.23-0.06-0.46-0.09-0.67-0.09
		c-0.38,0-0.67,0.07-0.87,0.22c-0.2,0.15-0.31,0.35-0.31,0.62c0,0.23,0.07,0.4,0.2,0.51c0.14,0.12,0.39,0.21,0.77,0.28l0.42,0.09
		c0.52,0.1,0.89,0.27,1.14,0.52c0.24,0.25,0.37,0.58,0.37,0.99c0,0.49-0.17,0.87-0.5,1.12c-0.33,0.26-0.82,0.38-1.46,0.38
		c-0.24,0-0.5-0.03-0.77-0.08c-0.27-0.05-0.55-0.14-0.85-0.24v-0.71c0.28,0.16,0.55,0.28,0.82,0.36c0.27,0.08,0.53,0.12,0.79,0.12
		c0.39,0,0.7-0.08,0.91-0.23c0.21-0.15,0.32-0.38,0.32-0.66c0-0.25-0.08-0.45-0.23-0.59c-0.15-0.14-0.41-0.25-0.76-0.32l-0.42-0.08
		c-0.51-0.1-0.89-0.26-1.12-0.48c-0.23-0.22-0.34-0.52-0.34-0.91c0-0.45,0.16-0.81,0.48-1.07c0.32-0.26,0.76-0.39,1.31-0.39
		c0.24,0,0.48,0.02,0.73,0.06C65.46,54.63,65.71,54.69,65.97,54.78z"/>
	<path fill="#0C9B9B" d="M71.88,54.52c0.71,0,1.29,0.24,1.71,0.72s0.64,1.12,0.64,1.93c0,0.8-0.21,1.45-0.64,1.92s-1,0.72-1.71,0.72
		c-0.72,0-1.29-0.24-1.72-0.72c-0.43-0.48-0.64-1.12-0.64-1.93c0-0.81,0.21-1.45,0.64-1.93C70.59,54.76,71.16,54.52,71.88,54.52z
		 M71.88,55.08c-0.5,0-0.9,0.19-1.19,0.56c-0.3,0.37-0.44,0.88-0.44,1.53c0,0.64,0.15,1.15,0.44,1.52c0.3,0.37,0.69,0.56,1.19,0.56
		s0.9-0.19,1.19-0.56c0.29-0.37,0.44-0.88,0.44-1.52c0-0.64-0.15-1.15-0.44-1.53C72.77,55.27,72.38,55.08,71.88,55.08z"/>
	<path fill="#0C9B9B" d="M77.76,54.61h0.69v4.52h2.48v0.58h-3.17V54.61z"/>
	<path fill="#0C9B9B" d="M83.68,54.61h0.69v3.1c0,0.55,0.1,0.94,0.3,1.18c0.2,0.24,0.52,0.36,0.96,0.36c0.44,0,0.76-0.12,0.96-0.36
		c0.2-0.24,0.3-0.63,0.3-1.18v-3.1h0.69v3.18c0,0.67-0.16,1.17-0.49,1.51c-0.33,0.34-0.81,0.51-1.46,0.51
		c-0.64,0-1.13-0.17-1.46-0.51c-0.33-0.34-0.49-0.84-0.49-1.51V54.61z"/>
	<path fill="#0C9B9B" d="M95.14,55.01v0.73c-0.23-0.22-0.48-0.38-0.74-0.48c-0.26-0.11-0.54-0.16-0.84-0.16
		c-0.58,0-1.03,0.18-1.34,0.53c-0.31,0.36-0.46,0.87-0.46,1.55c0,0.67,0.15,1.19,0.46,1.54c0.31,0.36,0.76,0.53,1.34,0.53
		c0.3,0,0.58-0.05,0.84-0.16c0.26-0.11,0.51-0.27,0.74-0.48v0.72c-0.24,0.16-0.5,0.29-0.77,0.37c-0.27,0.08-0.55,0.12-0.86,0.12
		c-0.77,0-1.38-0.24-1.82-0.71c-0.44-0.47-0.67-1.12-0.67-1.93c0-0.82,0.22-1.47,0.67-1.94c0.44-0.47,1.05-0.71,1.82-0.71
		c0.3,0,0.59,0.04,0.86,0.12C94.65,54.72,94.91,54.84,95.14,55.01z"/>
	<path fill="#0C9B9B" d="M98.66,54.61h0.69v5.1h-0.69V54.61z"/>
	<path fill="#0C9B9B" d="M105.24,54.52c0.71,0,1.29,0.24,1.71,0.72s0.64,1.12,0.64,1.93c0,0.8-0.21,1.45-0.64,1.92
		s-1,0.72-1.71,0.72c-0.72,0-1.29-0.24-1.72-0.72c-0.43-0.48-0.64-1.12-0.64-1.93c0-0.81,0.21-1.45,0.64-1.93
		C103.95,54.76,104.52,54.52,105.24,54.52z M105.24,55.08c-0.5,0-0.9,0.19-1.19,0.56c-0.3,0.37-0.44,0.88-0.44,1.53
		c0,0.64,0.15,1.15,0.44,1.52c0.3,0.37,0.69,0.56,1.19,0.56s0.9-0.19,1.19-0.56c0.29-0.37,0.44-0.88,0.44-1.52
		c0-0.64-0.15-1.15-0.44-1.53C106.13,55.27,105.74,55.08,105.24,55.08z"/>
	<path fill="#0C9B9B" d="M111.12,54.61h0.93l2.26,4.27v-4.27h0.67v5.1h-0.93l-2.26-4.27v4.27h-0.67V54.61z"/>
	<path fill="#0C9B9B" d="M118.8,54.61h3.22v0.58h-2.53v1.51h2.43v0.58h-2.43v1.85h2.6v0.58h-3.29V54.61z"/>
	<path fill="#0C9B9B" d="M128.73,54.78v0.67c-0.26-0.13-0.51-0.22-0.74-0.28c-0.23-0.06-0.46-0.09-0.67-0.09
		c-0.38,0-0.67,0.07-0.87,0.22c-0.2,0.15-0.31,0.35-0.31,0.62c0,0.23,0.07,0.4,0.2,0.51c0.14,0.12,0.39,0.21,0.77,0.28l0.42,0.09
		c0.52,0.1,0.89,0.27,1.14,0.52c0.24,0.25,0.37,0.58,0.37,0.99c0,0.49-0.17,0.87-0.5,1.12c-0.33,0.26-0.82,0.38-1.46,0.38
		c-0.24,0-0.5-0.03-0.77-0.08c-0.27-0.05-0.55-0.14-0.85-0.24v-0.71c0.28,0.16,0.55,0.28,0.82,0.36c0.27,0.08,0.53,0.12,0.79,0.12
		c0.39,0,0.7-0.08,0.91-0.23c0.21-0.15,0.32-0.38,0.32-0.66c0-0.25-0.08-0.45-0.23-0.59c-0.15-0.14-0.41-0.25-0.76-0.32l-0.42-0.08
		c-0.51-0.1-0.89-0.26-1.12-0.48c-0.23-0.22-0.34-0.52-0.34-0.91c0-0.45,0.16-0.81,0.48-1.07c0.32-0.26,0.76-0.39,1.31-0.39
		c0.24,0,0.48,0.02,0.73,0.06C128.21,54.63,128.47,54.69,128.73,54.78z"/>
	<path fill="#0C9B9B" d="M138.54,54.61h0.78l1.94,5.1h-0.72l-0.46-1.31h-2.3l-0.46,1.31h-0.73L138.54,54.61z M138.93,55.29
		L138,57.83h1.88L138.93,55.29z"/>
	<path fill="#0C9B9B" d="M144.46,54.61h1.03l1.3,3.47l1.31-3.47h1.03v5.1h-0.67v-4.48l-1.31,3.5h-0.69l-1.31-3.5v4.48h-0.67V54.61z"
		/>
	<path fill="#0C9B9B" d="M152.94,54.61h1.76c0.53,0,0.93,0.11,1.22,0.33c0.28,0.22,0.43,0.53,0.43,0.93c0,0.31-0.07,0.56-0.22,0.74
		c-0.15,0.18-0.36,0.3-0.64,0.35c0.34,0.07,0.6,0.22,0.79,0.46c0.19,0.23,0.28,0.52,0.28,0.87c0,0.46-0.15,0.81-0.46,1.06
		c-0.31,0.25-0.75,0.37-1.32,0.37h-1.83V54.61z M153.63,55.18v1.54h1.02c0.34,0,0.59-0.06,0.75-0.19s0.25-0.32,0.25-0.58
		c0-0.26-0.08-0.45-0.25-0.58c-0.17-0.13-0.42-0.19-0.75-0.19H153.63z M153.63,57.28v1.87h1.11c0.37,0,0.65-0.08,0.82-0.23
		c0.18-0.15,0.27-0.39,0.27-0.71c0-0.32-0.09-0.55-0.27-0.71c-0.18-0.15-0.45-0.23-0.82-0.23H153.63z"/>
	<path fill="#0C9B9B" d="M160.19,54.61h0.69v5.1h-0.69V54.61z"/>
	<path fill="#0C9B9B" d="M164.7,54.61h3.22v0.58h-2.53v1.51h2.43v0.58h-2.43v1.85h2.6v0.58h-3.29V54.61z"/>
	<path fill="#0C9B9B" d="M171.57,54.61h0.93l2.26,4.27v-4.27h0.67v5.1h-0.93l-2.26-4.27v4.27h-0.67V54.61z"/>
	<path fill="#0C9B9B" d="M178.54,54.61h4.31v0.58h-1.81v4.52h-0.69v-4.52h-1.81V54.61z"/>
	<path fill="#0C9B9B" d="M186.74,54.61h0.78l1.94,5.1h-0.72l-0.46-1.31h-2.3l-0.46,1.31h-0.73L186.74,54.61z M187.13,55.29
		l-0.94,2.54h1.88L187.13,55.29z"/>
	<path fill="#0C9B9B" d="M192.66,54.61h0.69v4.52h2.48v0.58h-3.17V54.61z"/>
	<path fill="#0C9B9B" d="M199.01,54.61h3.22v0.58h-2.53v1.51h2.43v0.58h-2.43v1.85h2.6v0.58h-3.29V54.61z"/>
	<path fill="#0C9B9B" d="M208.93,54.78v0.67c-0.26-0.13-0.51-0.22-0.74-0.28c-0.23-0.06-0.46-0.09-0.67-0.09
		c-0.38,0-0.67,0.07-0.87,0.22c-0.2,0.15-0.31,0.35-0.31,0.62c0,0.23,0.07,0.4,0.2,0.51c0.14,0.12,0.39,0.21,0.77,0.28l0.42,0.09
		c0.52,0.1,0.89,0.27,1.14,0.52c0.24,0.25,0.37,0.58,0.37,0.99c0,0.49-0.17,0.87-0.5,1.12c-0.33,0.26-0.82,0.38-1.46,0.38
		c-0.24,0-0.5-0.03-0.77-0.08c-0.27-0.05-0.55-0.14-0.85-0.24v-0.71c0.28,0.16,0.55,0.28,0.82,0.36c0.27,0.08,0.53,0.12,0.79,0.12
		c0.39,0,0.7-0.08,0.91-0.23c0.21-0.15,0.32-0.38,0.32-0.66c0-0.25-0.08-0.45-0.23-0.59c-0.15-0.14-0.41-0.25-0.76-0.32l-0.42-0.08
		c-0.51-0.1-0.89-0.26-1.12-0.48c-0.23-0.22-0.34-0.52-0.34-0.91c0-0.45,0.16-0.81,0.48-1.07c0.32-0.26,0.76-0.39,1.31-0.39
		c0.24,0,0.48,0.02,0.73,0.06C208.42,54.63,208.67,54.69,208.93,54.78z"/>
	<path fill="#232E5B" d="M79.1,33.09c-0.97,3.5-3.3,9.2-10.23,9.2c-6.69,0-9.63-5.19-7.04-17.03c1.89-8.64,5.48-15.11,12.44-15.11
		c6.95,0,7.92,5.28,7.53,8.91h-5.28c0.04-1.54,0.26-4.41-2.8-4.41c-3.04,0-5.08,4.29-6.45,10.91c-1.62,7.73-1.45,12.2,2.06,12.2
		c2.69,0,4.01-3.23,4.39-4.67H79.1z"/>
	<path fill="#232E5B" d="M97.34,35.94c-0.43,2.11-0.99,4.46-1.17,5.81h-5.15c0.05-0.45,0.15-1.37,0.31-2.06
		c-1.19,1.61-2.61,2.43-5.15,2.43c-4.74,0-5.86-4.07-5.12-7.78c0.92-4.54,4.08-6.05,8.17-6.78c1.52-0.28,3.1-0.41,4.76-0.55
		l0.39-1.75c0.39-1.85,0.37-3.76-2.18-3.76c-1.78,0-2.5,1.19-2.95,2.92h-5.03c0.86-3.72,2.92-6.81,8.46-6.81
		c5.31,0,8.01,2.56,6.81,8.16L97.34,35.94z M93.19,30.9c-1.11,0.1-2.18,0.19-3.11,0.42c-1.9,0.46-3.32,1.29-3.73,3.19
		c-0.38,1.78,0.05,3.38,2.12,3.38c2.41,0,3.72-1.88,4.43-5.47L93.19,30.9z"/>
	<path fill="#232E5B" d="M104.08,26.03c0.82-3.91,1.36-6.37,1.64-8.04h5.06c-0.13,1.01-0.24,1.77-0.66,3.87
		c1.54-2.96,3.83-4.22,6.97-4.23l-1.27,5.8c-3.97-0.26-6.13,1.44-7.21,6.43l-2.52,11.91h-5.35L104.08,26.03z"/>
	<path fill="#232E5B" d="M121.95,9.12h5.35l-2.39,11.18c1.09-1.48,2.77-2.68,5.34-2.68c4.7,0,6.63,4.2,4.82,12.38
		c-1.64,7.44-4.57,12.12-9.63,12.12c-3.03,0-4.17-1.69-4.57-2.81c-0.19,0.88-0.48,1.9-0.67,2.44h-5.22c0.36-1.6,0.93-4.28,1.45-6.68
		L121.95,9.12z M129.76,29.98c1.11-5.14,0.77-7.91-1.89-7.91c-3.05,0-4.16,3.01-5.19,8.02c-1.18,5.72-0.48,7.61,1.97,7.61
		C127.08,37.71,128.67,35.1,129.76,29.98z"/>
	<path fill="#232E5B" d="M156.11,30.34c-1.23,6.18-4.2,11.79-10.75,11.79c-6.18,0-8.5-4.66-6.86-12.66
		c1.47-7.34,5.48-11.85,10.65-11.85C155.99,17.62,157.54,23.18,156.11,30.34z M143.74,30.08c-1.09,5.4-0.34,7.67,2.08,7.67
		c2.29,0,3.94-2.95,5-7.82c0.93-4.28,1.14-7.9-2.02-7.9C146.25,22.04,144.51,26.22,143.74,30.08z"/>
	<path fill="#232E5B" d="M160.92,25.38c1.05-4.89,1.33-6.43,1.5-7.39h5.23c-0.05,0.53-0.25,1.72-0.4,2.51
		c1.15-1.7,2.89-2.88,5.6-2.88c3.71,0,5.83,2.45,4.69,7.91l-3.48,16.22h-5.31l3.35-15.82c0.53-2.47,0.05-3.85-2.01-3.85
		c-2.1,0-3.38,1.25-4.17,4.99l-3.12,14.68h-5.36L160.92,25.38z"/>
	<path fill="#0C9B9B" d="M185.62,33.81l-3.28,7.94h-5.45c0,0,13.41-31.07,13.41-31.07h7.29l0.58,31.07h-5.28l0-7.94H185.62z
		 M192.82,29.2c-0.03-5.88,0.06-11.25,0.19-14.28h-0.13c-0.95,2.94-3,8.2-5.38,14.28H192.82z"/>
	<path fill="#0C9B9B" d="M204.03,26.03c0.82-3.91,1.36-6.37,1.64-8.04h5.06c-0.13,1.01-0.23,1.77-0.66,3.87
		c1.54-2.96,3.83-4.22,6.97-4.23l-1.27,5.8c-3.97-0.26-6.13,1.44-7.21,6.43l-2.52,11.91h-5.35L204.03,26.03z"/>
	<path fill="#0C9B9B" d="M231.41,39.37c-1.4,6.6-3.52,11.33-10.71,11.33c-6.93,0-7.67-4.75-7.25-7.27h4.99
		c-0.09,1.25,0.42,3.02,2.72,3.02c3.01,0,4-2.43,4.77-5.9l0.4-1.81c-1.2,1.79-3.04,2.6-5.23,2.6c-5,0-6.54-4.7-5.09-11.66
		c1.64-7.94,5.09-12.07,9.65-12.07c2.91,0,4.08,1.44,4.51,2.71c0.19-0.79,0.53-1.99,0.67-2.34h5.19c-0.35,1.44-0.87,3.84-1.59,7.16
		L231.41,39.37z M221.35,29.85c-1.14,5.4-0.06,7.13,2.13,7.13c2.29,0,3.74-2,4.9-7.23c1.26-5.51,0.94-7.71-1.94-7.71
		C224.32,22.03,222.5,24.48,221.35,29.85z"/>
	<path fill="#232E5B" d="M33.52,2.22c0,0-2.51,10.08-11.78,16.3s-20.21,15-16.58,20.71c-2.3-2.79-4.55-8.18-4.13-10.02
		C1.44,27.37,8.2,8.8,24.93,4.8C12.74,6.4,5.19,14.28,0.11,27.22c-0.94-12.58,4.2-20.37,9.8-23.76S26.53-1.66,33.52,2.22z"/>
	<g>
		<path fill="#0C9B9B" d="M21.95,45.68c2.22,2.5,4.77,4.55,6.16,5.56l0.37-1.65l-5.3-4.7c-0.44-1.3-1.15-5.49-1.22-8.57
			s-1.4-10.41-4.05-14.45c0,0-2.34,1.59-2.79,1.98c-0.45,0.4-2.92,2.58-2.92,2.58s3.33,9.39,5.88,13.73
			C19.14,41.94,20.41,43.95,21.95,45.68z"/>
		<path fill="#56B682" d="M11.29,27.29c0,0-8.07,6.8-5.6,12.05c4.03,4.98,9.34,5.66,14.23,6.3C13.34,36.34,11.29,27.29,11.29,27.29z
			"/>
	</g>
	<path fill="#0C9B9B" d="M47.7,30.28c0.06-2.9-1.62-4.91-3.34-7.14c0,1.27-0.11,2.56-0.33,3.85c-1.43,8.44-7.26,15.02-14.74,17.81
		l-0.32,1.92C37.73,45.38,45.17,39.05,47.7,30.28z"/>
	<path fill="#232E5B" d="M47.7,30.28c0.24-0.83,0.44-1.69,0.59-2.56c1.71-10.09-3.39-19.76-11.97-24.31l-0.32,1.92
		c5.2,4.32,8.38,10.81,8.37,17.82C46.08,25.36,47.75,27.37,47.7,30.28z"/>
</g>
</svg>
