<svg id="Capa_1" data-name="Capa 1" xmlns="http://www.w3.org/2000/svg" viewBox="0 0 143.86 83.41"><defs><style>.cls-1{fill:#fff;}</style></defs><path class="cls-1" d="M4.61,79.28v.55A3.57,3.57,0,0,0,4,79.6a2.13,2.13,0,0,0-.55-.07,1.18,1.18,0,0,0-.71.18.59.59,0,0,0-.26.51.54.54,0,0,0,.17.42,1.51,1.51,0,0,0,.63.23l.35.07a1.75,1.75,0,0,1,.93.42,1.12,1.12,0,0,1,.3.82,1.1,1.1,0,0,1-.4.92,2,2,0,0,1-1.2.31,3.52,3.52,0,0,1-.63-.06,6.77,6.77,0,0,1-.7-.2v-.59a3,3,0,0,0,.68.29,2.14,2.14,0,0,0,.65.1A1.26,1.26,0,0,0,4,82.76a.63.63,0,0,0,.26-.54.59.59,0,0,0-.19-.48,1.24,1.24,0,0,0-.62-.27l-.34-.06A1.88,1.88,0,0,1,2.2,81a1,1,0,0,1-.29-.75,1.06,1.06,0,0,1,.4-.87,1.62,1.62,0,0,1,1.08-.32,3.17,3.17,0,0,1,.6.05A5.15,5.15,0,0,1,4.61,79.28Z"/><path class="cls-1" d="M9.46,79.07a1.77,1.77,0,0,1,1.41.59,2.62,2.62,0,0,1,0,3.16,1.77,1.77,0,0,1-1.41.59,1.77,1.77,0,0,1-1.41-.59,2.62,2.62,0,0,1,0-3.16A1.77,1.77,0,0,1,9.46,79.07Zm0,.46a1.17,1.17,0,0,0-1,.46,2.35,2.35,0,0,0,0,2.5,1.17,1.17,0,0,0,1,.46,1.17,1.17,0,0,0,1-.46,2.35,2.35,0,0,0,0-2.5A1.17,1.17,0,0,0,9.46,79.53Z"/><path class="cls-1" d="M14.29,79.14h.57v3.71h2v.48H14.29Z"/><path class="cls-1" d="M19.15,79.14h.57v2.55a1.55,1.55,0,0,0,.25,1,1,1,0,0,0,.79.29,1,1,0,0,0,.79-.29,1.55,1.55,0,0,0,.24-1V79.14h.57v2.62A1.69,1.69,0,0,1,22,83a1.59,1.59,0,0,1-1.2.42,1.59,1.59,0,0,1-1.2-.42,1.69,1.69,0,0,1-.41-1.23Z"/><path class="cls-1" d="M28.57,79.47v.59a2,2,0,0,0-.61-.4,1.93,1.93,0,0,0-.69-.13,1.41,1.41,0,0,0-1.1.44,2.31,2.31,0,0,0,0,2.54,1.41,1.41,0,0,0,1.1.44,1.93,1.93,0,0,0,.69-.13,2.14,2.14,0,0,0,.61-.4V83a2.33,2.33,0,0,1-1.33.4,2,2,0,0,1-1.5-.58,2.61,2.61,0,0,1,0-3.18,2,2,0,0,1,1.5-.58,2.34,2.34,0,0,1,.71.1A1.87,1.87,0,0,1,28.57,79.47Z"/><path class="cls-1" d="M31.46,79.14H32v4.19h-.57Z"/><path class="cls-1" d="M36.87,79.07a1.76,1.76,0,0,1,1.4.59,2.62,2.62,0,0,1,0,3.16,1.76,1.76,0,0,1-1.4.59,1.81,1.81,0,0,1-1.42-.59,2.62,2.62,0,0,1,0-3.16A1.81,1.81,0,0,1,36.87,79.07Zm0,.46a1.16,1.16,0,0,0-1,.46,2.3,2.3,0,0,0,0,2.5,1.26,1.26,0,0,0,2,0,2.35,2.35,0,0,0,0-2.5A1.15,1.15,0,0,0,36.87,79.53Z"/><path class="cls-1" d="M41.7,79.14h.76l1.86,3.51V79.14h.55v4.19h-.76l-1.86-3.5v3.5H41.7Z"/><path class="cls-1" d="M48,79.14h2.65v.48H48.58v1.24h2v.48h-2v1.51h2.13v.48H48Z"/><path class="cls-1" d="M56.16,79.28v.55a3.28,3.28,0,0,0-.61-.23,2.13,2.13,0,0,0-.55-.07,1.18,1.18,0,0,0-.71.18.58.58,0,0,0-.25.51.54.54,0,0,0,.16.42,1.57,1.57,0,0,0,.64.23l.34.07a1.75,1.75,0,0,1,.93.42,1.12,1.12,0,0,1,.31.82,1.1,1.1,0,0,1-.41.92,1.93,1.93,0,0,1-1.2.31,3.52,3.52,0,0,1-.63-.06,6.77,6.77,0,0,1-.7-.2v-.59a3,3,0,0,0,.68.29,2.14,2.14,0,0,0,.65.1,1.26,1.26,0,0,0,.75-.19.61.61,0,0,0,.26-.54.59.59,0,0,0-.19-.48,1.24,1.24,0,0,0-.62-.27l-.34-.06a1.88,1.88,0,0,1-.92-.4,1,1,0,0,1-.28-.75,1.06,1.06,0,0,1,.39-.87,1.62,1.62,0,0,1,1.08-.32,3.17,3.17,0,0,1,.6.05A5.15,5.15,0,0,1,56.16,79.28Z"/><path class="cls-1" d="M64.23,79.14h.64l1.6,4.19h-.59l-.38-1.07H63.61l-.38,1.07h-.6Zm.32.56-.77,2.09h1.54Z"/><path class="cls-1" d="M69.09,79.14h.85L71,82l1.08-2.85h.84v4.19h-.55V79.65l-1.08,2.88h-.57l-1.08-2.88v3.68h-.55Z"/><path class="cls-1" d="M76.06,79.14h1.45a1.63,1.63,0,0,1,1,.27.93.93,0,0,1,.35.77,1,1,0,0,1-.18.61.79.79,0,0,1-.53.28A1.05,1.05,0,0,1,79,82.16a1.08,1.08,0,0,1-.38.87,1.73,1.73,0,0,1-1.09.3h-1.5Zm.57.47v1.26h.84a1,1,0,0,0,.61-.15.57.57,0,0,0,.21-.48.54.54,0,0,0-.21-.47,1,1,0,0,0-.61-.16Zm0,1.72v1.54h.91a1,1,0,0,0,.67-.19.72.72,0,0,0,.22-.58.71.71,0,0,0-.22-.58,1,1,0,0,0-.67-.19Z"/><path class="cls-1" d="M82,79.14h.57v4.19H82Z"/><path class="cls-1" d="M85.72,79.14h2.65v.48H86.29v1.24h2v.48h-2v1.51h2.13v.48h-2.7Z"/><path class="cls-1" d="M91.36,79.14h.76L94,82.65V79.14h.55v4.19h-.76l-1.86-3.5v3.5h-.55Z"/><path class="cls-1" d="M97.09,79.14h3.54v.48H99.15v3.71h-.57V79.62H97.09Z"/><path class="cls-1" d="M103.83,79.14h.64l1.6,4.19h-.59l-.39-1.07h-1.88l-.39,1.07h-.59Zm.32.56-.77,2.09h1.54Z"/><path class="cls-1" d="M108.69,79.14h.56v3.71h2v.48h-2.6Z"/><path class="cls-1" d="M113.9,79.14h2.65v.48h-2.08v1.24h2v.48h-2v1.51h2.13v.48h-2.7Z"/><path class="cls-1" d="M122.05,79.28v.55a3.48,3.48,0,0,0-.6-.23,2.26,2.26,0,0,0-.56-.07,1.2,1.2,0,0,0-.71.18.58.58,0,0,0-.25.51.54.54,0,0,0,.16.42,1.63,1.63,0,0,0,.64.23l.34.07a1.75,1.75,0,0,1,.93.42,1.09,1.09,0,0,1,.31.82,1.1,1.1,0,0,1-.41.92,1.93,1.93,0,0,1-1.2.31,3.52,3.52,0,0,1-.63-.06c-.22,0-.46-.12-.7-.2v-.59a3,3,0,0,0,.68.29,2.14,2.14,0,0,0,.65.1,1.26,1.26,0,0,0,.75-.19.61.61,0,0,0,.26-.54.59.59,0,0,0-.19-.48,1.24,1.24,0,0,0-.62-.27l-.34-.06a1.93,1.93,0,0,1-.92-.4,1,1,0,0,1-.28-.75,1.06,1.06,0,0,1,.39-.87,1.62,1.62,0,0,1,1.08-.32,3.17,3.17,0,0,1,.6.05A5.15,5.15,0,0,1,122.05,79.28Z"/><path class="cls-1" d="M15,64.19c-.8,2.87-2.71,7.56-8.4,7.56-5.5,0-7.91-4.27-5.78-14C2.32,50.66,5.27,45.35,11,45.35s6.51,4.34,6.18,7.32H12.84c0-1.27.21-3.63-2.3-3.63s-4.17,3.52-5.3,9C3.91,64.36,4.05,68,6.93,68c2.21,0,3.29-2.65,3.61-3.83Z"/><path class="cls-1" d="M29.93,66.53c-.35,1.74-.81,3.67-.95,4.78H24.75c0-.37.13-1.13.25-1.69a4.66,4.66,0,0,1-4.23,2c-3.9,0-4.82-3.34-4.2-6.4.76-3.73,3.35-5,6.71-5.57,1.25-.22,2.54-.33,3.91-.44l.32-1.45c.32-1.52.31-3.08-1.79-3.08-1.46,0-2,1-2.42,2.39H19.17c.7-3,2.39-5.59,6.94-5.59,4.36,0,6.59,2.11,5.6,6.71Zm-3.41-4.14a17.12,17.12,0,0,0-2.55.34c-1.56.39-2.73,1.06-3.07,2.62s0,2.77,1.74,2.77c2,0,3.05-1.54,3.64-4.49Z"/><path class="cls-1" d="M35.47,58.39c.67-3.21,1.12-5.23,1.35-6.61H41c-.11.83-.19,1.46-.54,3.18a5.93,5.93,0,0,1,5.73-3.47l-1,4.76c-3.25-.22-5,1.19-5.92,5.28l-2.07,9.78h-4.4Z"/><path class="cls-1" d="M50.15,44.5h4.4l-2,9.19A5.18,5.18,0,0,1,57,51.48c3.86,0,5.44,3.46,4,10.18-1.35,6.11-3.76,10-7.91,10a3.61,3.61,0,0,1-3.76-2.3c-.16.72-.4,1.56-.55,2H44.42c.29-1.31.76-3.52,1.19-5.49Zm6.42,17.14c.91-4.22.63-6.5-1.56-6.5-2.51,0-3.41,2.47-4.26,6.59-1,4.7-.39,6.26,1.62,6.26S55.67,65.85,56.57,61.64Z"/><path class="cls-1" d="M78.21,61.93c-1,5.08-3.45,9.69-8.83,9.69-5.08,0-7-3.83-5.64-10.41,1.21-6,4.5-9.73,8.75-9.73C78.12,51.48,79.39,56.05,78.21,61.93Zm-10.16-.21c-.9,4.43-.28,6.3,1.71,6.3S73,65.6,73.87,61.6c.76-3.51.94-6.49-1.66-6.49C70.11,55.11,68.69,58.55,68.05,61.72Z"/><path class="cls-1" d="M82.16,57.86c.87-4,1.1-5.29,1.24-6.08h4.29c0,.44-.2,1.42-.33,2.07A5.21,5.21,0,0,1,92,51.48c3,0,4.79,2,3.85,6.5L93,71.31H88.6l2.75-13c.44-2,0-3.16-1.65-3.16s-2.78,1-3.43,4.1L83.71,71.31h-4.4Z"/><path class="cls-1" d="M102.46,64.79l-2.69,6.52H95.29l11-25.52h6l.48,25.52h-4.34V64.79ZM108.37,61c0-4.83,0-9.25.16-11.73h-.11C107.64,51.68,106,56,104,61Z"/><path class="cls-1" d="M117.58,58.39c.67-3.21,1.12-5.23,1.35-6.61h4.16c-.11.83-.2,1.46-.55,3.18a5.94,5.94,0,0,1,5.73-3.47l-1,4.76c-3.26-.22-5,1.19-5.92,5.28l-2.08,9.78h-4.39Z"/><path class="cls-1" d="M140.07,69.36c-1.15,5.42-2.89,9.3-8.8,9.3-5.69,0-6.3-3.9-6-6h4.11a2.11,2.11,0,0,0,2.23,2.48c2.47,0,3.29-2,3.92-4.84l.33-1.49A4.87,4.87,0,0,1,131.61,71c-4.11,0-5.38-3.86-4.19-9.58,1.34-6.53,4.19-9.92,7.93-9.92,2.39,0,3.35,1.19,3.7,2.23.16-.65.43-1.64.55-1.93h4.26c-.29,1.19-.71,3.16-1.3,5.88Zm-8.26-7.83c-.93,4.43-.05,5.86,1.75,5.86s3.07-1.64,4-6c1-4.52.77-6.33-1.59-6.33C134.25,55.11,132.76,57.12,131.81,61.53Z"/><path class="cls-1" d="M82.89,1.82A25,25,0,0,1,73.2,15.21c-7.62,5.12-16.6,12.33-13.61,17-1.89-2.3-3.74-6.73-3.4-8.24S62.09,7.23,75.83,4c-10,1.31-16.22,7.78-20.39,18.41C54.67,12,58.89,5.62,63.49,2.84S77.15-1.37,82.89,1.82Z"/><path class="cls-1" d="M73.38,37.53a33,33,0,0,0,5.06,4.56l.31-1.35L74.4,36.88a32.28,32.28,0,0,1-1-7c-.06-2.54-1.15-8.56-3.33-11.87,0,0-1.92,1.3-2.29,1.63l-2.39,2.12S68.13,29.43,70.22,33A28.36,28.36,0,0,0,73.38,37.53Z"/><path class="cls-1" d="M64.63,22.42S58,28,60,32.32c3.32,4.1,7.68,4.65,11.69,5.18A47.11,47.11,0,0,1,64.63,22.42Z"/><path class="cls-1" d="M94.53,24.87c0-2.38-1.32-4-2.74-5.86a18,18,0,0,1-.27,3.17,19,19,0,0,1-12.1,14.63l-.27,1.57A19,19,0,0,0,94.53,24.87Z"/><path class="cls-1" d="M94.53,24.87a17.83,17.83,0,0,0,.49-2.1,19,19,0,0,0-9.84-20l-.26,1.57A19,19,0,0,1,91.79,19C93.21,20.84,94.58,22.49,94.53,24.87Z"/></svg>