<svg id="Capa_1" data-name="Capa 1" xmlns="http://www.w3.org/2000/svg" viewBox="0 0 193.9 46.4"><defs><style>.cls-1{fill:#fff;}</style></defs><path class="cls-1" d="M54.64,42.27v.55a3.48,3.48,0,0,0-.6-.23,2.2,2.2,0,0,0-.56-.07,1.2,1.2,0,0,0-.71.18.58.58,0,0,0-.25.51.51.51,0,0,0,.17.42,1.51,1.51,0,0,0,.63.23l.34.07a1.83,1.83,0,0,1,.94.42,1.13,1.13,0,0,1,.3.82,1.1,1.1,0,0,1-.41.92,1.93,1.93,0,0,1-1.2.31,3.52,3.52,0,0,1-.63-.06,5.24,5.24,0,0,1-.69-.2v-.59a3.55,3.55,0,0,0,.67.3,2.48,2.48,0,0,0,.65.09,1.22,1.22,0,0,0,.75-.19.61.61,0,0,0,.27-.54.62.62,0,0,0-.19-.48,1.23,1.23,0,0,0-.63-.26l-.34-.07a1.93,1.93,0,0,1-.92-.4,1,1,0,0,1-.28-.75,1.06,1.06,0,0,1,.39-.87,1.62,1.62,0,0,1,1.08-.32,4,4,0,0,1,.6,0A5.15,5.15,0,0,1,54.64,42.27Z"/><path class="cls-1" d="M59.49,42.06a1.8,1.8,0,0,1,1.41.59,2.62,2.62,0,0,1,0,3.16,1.77,1.77,0,0,1-1.41.59,1.8,1.8,0,0,1-1.41-.58,2.31,2.31,0,0,1-.53-1.59,2.29,2.29,0,0,1,.53-1.58A1.8,1.8,0,0,1,59.49,42.06Zm0,.46a1.17,1.17,0,0,0-1,.46,2.35,2.35,0,0,0,0,2.5,1.27,1.27,0,0,0,2,0,2.35,2.35,0,0,0,0-2.5A1.17,1.17,0,0,0,59.49,42.52Z"/><path class="cls-1" d="M64.33,42.13h.56v3.72h2v.47h-2.6Z"/><path class="cls-1" d="M69.19,42.13h.57v2.55a1.55,1.55,0,0,0,.24,1,1,1,0,0,0,.79.29,1,1,0,0,0,.79-.29,1.48,1.48,0,0,0,.25-1V42.13h.57v2.62A1.72,1.72,0,0,1,72,46a2,2,0,0,1-2.4,0,1.71,1.71,0,0,1-.4-1.24Z"/><path class="cls-1" d="M78.61,42.46v.59a2,2,0,0,0-.61-.39,1.81,1.81,0,0,0-.69-.14,1.38,1.38,0,0,0-1.1.44,2.31,2.31,0,0,0,0,2.54,1.38,1.38,0,0,0,1.1.44,2,2,0,0,0,.69-.13,2.07,2.07,0,0,0,.61-.4V46a2,2,0,0,1-.63.3,2.34,2.34,0,0,1-.71.1,1.93,1.93,0,0,1-1.49-.58,2.57,2.57,0,0,1,0-3.18,1.93,1.93,0,0,1,1.49-.58,2.34,2.34,0,0,1,.71.1A2,2,0,0,1,78.61,42.46Z"/><path class="cls-1" d="M81.49,42.13h.57v4.19h-.57Z"/><path class="cls-1" d="M86.9,42.06a1.8,1.8,0,0,1,1.41.59,2.62,2.62,0,0,1,0,3.16,1.77,1.77,0,0,1-1.41.59,1.8,1.8,0,0,1-1.41-.58A2.27,2.27,0,0,1,85,44.23a2.24,2.24,0,0,1,.53-1.58A1.8,1.8,0,0,1,86.9,42.06Zm0,.46a1.17,1.17,0,0,0-1,.46,2.35,2.35,0,0,0,0,2.5,1.27,1.27,0,0,0,2,0,2.35,2.35,0,0,0,0-2.5A1.17,1.17,0,0,0,86.9,42.52Z"/><path class="cls-1" d="M91.73,42.13h.77l1.86,3.51V42.13h.54v4.19h-.76l-1.86-3.5v3.5h-.55Z"/><path class="cls-1" d="M98,42.13h2.65v.48H98.61v1.24h2v.48h-2v1.52h2.13v.47H98Z"/><path class="cls-1" d="M106.2,42.27v.55a3.91,3.91,0,0,0-.61-.23,2.18,2.18,0,0,0-.55-.07,1.24,1.24,0,0,0-.72.18.58.58,0,0,0-.25.51.54.54,0,0,0,.17.42,1.51,1.51,0,0,0,.63.23l.34.07a1.75,1.75,0,0,1,.94.42,1.13,1.13,0,0,1,.3.82,1.1,1.1,0,0,1-.41.92,1.93,1.93,0,0,1-1.2.31,3.7,3.7,0,0,1-.63-.06,5.24,5.24,0,0,1-.69-.2v-.59a3.55,3.55,0,0,0,.67.3,2.48,2.48,0,0,0,.65.09,1.22,1.22,0,0,0,.75-.19.61.61,0,0,0,.27-.54.62.62,0,0,0-.19-.48,1.23,1.23,0,0,0-.62-.26l-.35-.07a1.93,1.93,0,0,1-.92-.4,1,1,0,0,1-.28-.75,1.06,1.06,0,0,1,.39-.87,1.62,1.62,0,0,1,1.08-.32,4,4,0,0,1,.6,0A5.29,5.29,0,0,1,106.2,42.27Z"/><path class="cls-1" d="M114.26,42.13h.65l1.59,4.19h-.59l-.38-1.07h-1.89l-.38,1.07h-.6Zm.32.56-.77,2.09h1.54Z"/><path class="cls-1" d="M119.12,42.13H120L121,45l1.07-2.85H123v4.19h-.56V42.64l-1.08,2.88h-.57l-1.08-2.88v3.68h-.55Z"/><path class="cls-1" d="M126.09,42.13h1.45a1.61,1.61,0,0,1,1,.27.93.93,0,0,1,.35.77.94.94,0,0,1-.18.61.77.77,0,0,1-.53.28,1.09,1.09,0,0,1,.65.38,1.06,1.06,0,0,1,.23.71,1,1,0,0,1-.38.87,1.69,1.69,0,0,1-1.08.3h-1.51Zm.57.47v1.26h.84a1,1,0,0,0,.62-.15.6.6,0,0,0,.2-.48.56.56,0,0,0-.2-.47,1,1,0,0,0-.62-.16Zm0,1.72v1.54h.91a1.08,1.08,0,0,0,.68-.19.75.75,0,0,0,.22-.58.74.74,0,0,0-.22-.58,1.08,1.08,0,0,0-.68-.19Z"/><path class="cls-1" d="M132.05,42.13h.56v4.19h-.56Z"/><path class="cls-1" d="M135.75,42.13h2.65v.48h-2.08v1.24h2v.48h-2v1.52h2.13v.47h-2.7Z"/><path class="cls-1" d="M141.39,42.13h.77L144,45.64V42.13h.55v4.19h-.77l-1.86-3.5v3.5h-.55Z"/><path class="cls-1" d="M147.12,42.13h3.55v.48h-1.49v3.71h-.57V42.61h-1.49Z"/><path class="cls-1" d="M153.86,42.13h.64l1.6,4.19h-.59l-.38-1.07h-1.89l-.38,1.07h-.6Zm.32.56-.77,2.09H155Z"/><path class="cls-1" d="M158.72,42.13h.57v3.72h2v.47h-2.61Z"/><path class="cls-1" d="M163.93,42.13h2.65v.48H164.5v1.24h2v.48h-2v1.52h2.13v.47h-2.7Z"/><path class="cls-1" d="M172.09,42.27v.55a3.91,3.91,0,0,0-.61-.23,2.18,2.18,0,0,0-.55-.07,1.24,1.24,0,0,0-.72.18.61.61,0,0,0-.25.51.54.54,0,0,0,.17.42,1.51,1.51,0,0,0,.63.23l.34.07a1.75,1.75,0,0,1,.94.42,1.13,1.13,0,0,1,.3.82,1.1,1.1,0,0,1-.41.92,1.92,1.92,0,0,1-1.19.31,3.72,3.72,0,0,1-.64-.06,5.24,5.24,0,0,1-.69-.2v-.59a3.55,3.55,0,0,0,.67.3,2.56,2.56,0,0,0,.66.09,1.21,1.21,0,0,0,.74-.19.61.61,0,0,0,.27-.54.59.59,0,0,0-.19-.48,1.19,1.19,0,0,0-.62-.26l-.35-.07a1.93,1.93,0,0,1-.92-.4,1,1,0,0,1-.28-.75,1.06,1.06,0,0,1,.39-.87,1.62,1.62,0,0,1,1.08-.32,4,4,0,0,1,.6,0A5.29,5.29,0,0,1,172.09,42.27Z"/><path class="cls-1" d="M65,27.18c-.79,2.87-2.71,7.56-8.4,7.56-5.49,0-7.9-4.26-5.78-14C52.36,13.65,55.3,8.34,61,8.34s6.51,4.34,6.19,7.32H62.87c0-1.27.21-3.63-2.3-3.63s-4.17,3.52-5.3,9c-1.33,6.36-1.19,10,1.7,10,2.21,0,3.29-2.66,3.6-3.84Z"/><path class="cls-1" d="M80,29.53c-.36,1.73-.81,3.66-1,4.77H74.78c0-.37.13-1.13.26-1.69a4.68,4.68,0,0,1-4.23,2c-3.9,0-4.82-3.34-4.21-6.39.76-3.74,3.35-5,6.71-5.58,1.25-.22,2.55-.33,3.91-.44l.33-1.45c.32-1.52.3-3.08-1.79-3.08-1.47,0-2.06,1-2.43,2.4H69.2c.7-3.06,2.4-5.6,7-5.6,4.36,0,6.58,2.11,5.59,6.71Zm-3.41-4.15a17.39,17.39,0,0,0-2.56.35c-1.56.38-2.73,1.05-3.07,2.61s0,2.78,1.74,2.78c2,0,3.06-1.55,3.64-4.5Z"/><path class="cls-1" d="M85.5,21.38c.68-3.2,1.12-5.23,1.35-6.6H91c-.11.82-.2,1.45-.54,3.17a5.92,5.92,0,0,1,5.72-3.47l-1,4.76c-3.26-.21-5,1.19-5.92,5.28L87.15,34.3H82.76Z"/><path class="cls-1" d="M100.19,7.49h4.39l-2,9.19A5.17,5.17,0,0,1,107,14.47c3.87,0,5.45,3.46,4,10.18-1.35,6.11-3.76,10-7.91,10a3.61,3.61,0,0,1-3.76-2.3,19.15,19.15,0,0,1-.55,2H94.45c.3-1.31.76-3.52,1.2-5.49Zm6.41,17.14c.91-4.22.63-6.5-1.55-6.5-2.51,0-3.42,2.47-4.27,6.59-1,4.7-.39,6.26,1.62,6.26S105.7,28.84,106.6,24.63Z"/><path class="cls-1" d="M128.25,24.92c-1,5.08-3.46,9.69-8.83,9.69-5.09,0-7-3.83-5.64-10.4,1.2-6,4.5-9.74,8.74-9.74C128.15,14.47,129.43,19.05,128.25,24.92Zm-10.17-.21c-.9,4.44-.28,6.31,1.71,6.31s3.24-2.42,4.12-6.43c.76-3.51.93-6.49-1.67-6.49C120.15,18.1,118.72,21.54,118.08,24.71Z"/><path class="cls-1" d="M132.2,20.85c.86-4,1.09-5.28,1.23-6.07h4.3c0,.43-.21,1.41-.33,2.06a5.18,5.18,0,0,1,4.6-2.37c3.05,0,4.79,2,3.85,6.5L143,34.3h-4.36l2.75-13c.44-2,0-3.16-1.65-3.16s-2.77,1-3.42,4.1L133.74,34.3h-4.4Z"/><path class="cls-1" d="M152.49,27.78,149.8,34.3h-4.48l11-25.52h6l.47,25.52h-4.33V27.78ZM158.4,24c0-4.83,0-9.25.16-11.73h-.11C157.68,14.67,156,19,154,24Z"/><path class="cls-1" d="M167.61,21.38c.68-3.2,1.12-5.23,1.35-6.6h4.16c-.11.82-.19,1.45-.54,3.17a5.93,5.93,0,0,1,5.73-3.47l-1.05,4.76c-3.26-.21-5,1.19-5.92,5.28l-2.07,9.78h-4.4Z"/><path class="cls-1" d="M190.11,32.35c-1.16,5.42-2.89,9.3-8.8,9.3-5.7,0-6.31-3.9-6-6h4.1a2.12,2.12,0,0,0,2.23,2.48c2.48,0,3.29-2,3.92-4.84l.33-1.49A4.87,4.87,0,0,1,181.64,34c-4.11,0-5.37-3.86-4.19-9.58,1.35-6.53,4.19-9.92,7.93-9.92,2.39,0,3.35,1.19,3.7,2.23.16-.65.44-1.64.56-1.92h4.26c-.29,1.18-.72,3.15-1.31,5.87Zm-8.26-7.83c-.94,4.43,0,5.86,1.75,5.86s3.07-1.64,4-5.95c1-4.52.77-6.33-1.6-6.33C184.28,18.1,182.79,20.11,181.85,24.52Z"/><path class="cls-1" d="M27.53,1.82a25,25,0,0,1-9.68,13.39c-7.62,5.12-16.6,12.33-13.62,17C2.35,29.93.5,25.5.84,24S6.73,7.23,20.48,4C10.47,5.26,4.26,11.73.09,22.36-.68,12,3.54,5.62,8.14,2.84S21.8-1.37,27.53,1.82Z"/><path class="cls-1" d="M18,37.53a32.57,32.57,0,0,0,5.06,4.56l.31-1.35-4.35-3.86a32.28,32.28,0,0,1-1-7C18,27.3,16.9,21.28,14.72,18c0,0-1.92,1.3-2.29,1.63L10,21.72S12.77,29.43,14.87,33A28.36,28.36,0,0,0,18,37.53Z"/><path class="cls-1" d="M9.28,22.42S2.64,28,4.67,32.32C8,36.42,12.35,37,16.36,37.5A47.11,47.11,0,0,1,9.28,22.42Z"/><path class="cls-1" d="M39.18,24.87c0-2.38-1.32-4-2.74-5.86a19,19,0,0,1-12.37,17.8l-.27,1.57A19,19,0,0,0,39.18,24.87Z"/><path class="cls-1" d="M39.18,24.87a20.08,20.08,0,0,0,.49-2.1,19,19,0,0,0-9.84-20l-.26,1.57A19,19,0,0,1,36.44,19C37.86,20.84,39.23,22.49,39.18,24.87Z"/></svg>