<?xml version="1.0" encoding="UTF-8" standalone="no"?>
<!-- Generator: Adobe Illustrator 25.0.1, SVG Export Plug-In . SVG Version: 6.00 Build 0)  -->

<svg
   xmlns:dc="http://purl.org/dc/elements/1.1/"
   xmlns:cc="http://creativecommons.org/ns#"
   xmlns:rdf="http://www.w3.org/1999/02/22-rdf-syntax-ns#"
   xmlns:svg="http://www.w3.org/2000/svg"
   xmlns="http://www.w3.org/2000/svg"
   xmlns:sodipodi="http://sodipodi.sourceforge.net/DTD/sodipodi-0.dtd"
   xmlns:inkscape="http://www.inkscape.org/namespaces/inkscape"
   version="1.1"
   id="Capa_1"
   x="0px"
   y="0px"
   viewBox="0 0 236.02 61.999999"
   enable-background="new 0 0 236.02 59.81"
   xml:space="preserve"
   sodipodi:docname="entrega_logo-19-fix.svg"
   inkscape:version="0.92.4 (5da689c313, 2019-01-14)"
   width="236.02"
   height="62"><metadata
   id="metadata4684"><rdf:RDF><cc:Work
       rdf:about=""><dc:format>image/svg+xml</dc:format><dc:type
         rdf:resource="http://purl.org/dc/dcmitype/StillImage" /><dc:title></dc:title></cc:Work></rdf:RDF></metadata><defs
   id="defs4682" /><sodipodi:namedview
   pagecolor="#ffffff"
   bordercolor="#666666"
   borderopacity="1"
   objecttolerance="10"
   gridtolerance="10"
   guidetolerance="10"
   inkscape:pageopacity="0"
   inkscape:pageshadow="2"
   inkscape:window-width="1366"
   inkscape:window-height="705"
   id="namedview4680"
   showgrid="false"
   inkscape:zoom="4.1823618"
   inkscape:cx="91.720225"
   inkscape:cy="12.576455"
   inkscape:window-x="-8"
   inkscape:window-y="-8"
   inkscape:window-maximized="1"
   inkscape:current-layer="Capa_1" />

<g
   id="g3104"
   transform="matrix(1.2193807,0,0,1.2298,-0.1806862,0.7463622)"
   style="stroke-width:0.816607"><path
     id="path2993"
     d="m 54.64,45.522562 v 0.55 a 3.48,3.48 0 0 0 -0.6,-0.23 2.2,2.2 0 0 0 -0.56,-0.07 1.2,1.2 0 0 0 -0.71,0.18 0.58,0.58 0 0 0 -0.25,0.51 0.51,0.51 0 0 0 0.17,0.42 1.51,1.51 0 0 0 0.63,0.23 l 0.34,0.07 a 1.83,1.83 0 0 1 0.94,0.42 1.13,1.13 0 0 1 0.3,0.82 1.1,1.1 0 0 1 -0.41,0.92 1.93,1.93 0 0 1 -1.2,0.31 3.52,3.52 0 0 1 -0.63,-0.06 5.24,5.24 0 0 1 -0.69,-0.2 v -0.59 a 3.55,3.55 0 0 0 0.67,0.3 2.48,2.48 0 0 0 0.65,0.09 1.22,1.22 0 0 0 0.75,-0.19 0.61,0.61 0 0 0 0.27,-0.54 0.62,0.62 0 0 0 -0.19,-0.48 1.23,1.23 0 0 0 -0.63,-0.26 l -0.34,-0.07 a 1.93,1.93 0 0 1 -0.92,-0.4 1,1 0 0 1 -0.28,-0.75 1.06,1.06 0 0 1 0.39,-0.87 1.62,1.62 0 0 1 1.08,-0.32 4,4 0 0 1 0.6,0 5.15,5.15 0 0 1 0.62,0.21 z"
     class="cls-1"
     inkscape:connector-curvature="0"
     style="fill:#ffffff;stroke-width:0.816607" /><path
     id="path2995"
     d="m 59.49,45.312562 a 1.8,1.8 0 0 1 1.41,0.59 2.62,2.62 0 0 1 0,3.16 1.77,1.77 0 0 1 -1.41,0.59 1.8,1.8 0 0 1 -1.41,-0.58 2.31,2.31 0 0 1 -0.53,-1.59 2.29,2.29 0 0 1 0.53,-1.58 1.8,1.8 0 0 1 1.41,-0.59 z m 0,0.46 a 1.17,1.17 0 0 0 -1,0.46 2.35,2.35 0 0 0 0,2.5 1.27,1.27 0 0 0 2,0 2.35,2.35 0 0 0 0,-2.5 1.17,1.17 0 0 0 -1,-0.46 z"
     class="cls-1"
     inkscape:connector-curvature="0"
     style="fill:#ffffff;stroke-width:0.816607" /><path
     id="path2997"
     d="m 64.33,45.382562 h 0.56 v 3.72 h 2 v 0.47 h -2.6 z"
     class="cls-1"
     inkscape:connector-curvature="0"
     style="fill:#ffffff;stroke-width:0.816607" /><path
     id="path2999"
     d="m 69.19,45.382562 h 0.57 v 2.55 a 1.55,1.55 0 0 0 0.24,1 1,1 0 0 0 0.79,0.29 1,1 0 0 0 0.79,-0.29 1.48,1.48 0 0 0 0.25,-1 v -2.55 h 0.57 v 2.62 a 1.72,1.72 0 0 1 -0.4,1.25 2,2 0 0 1 -2.4,0 1.71,1.71 0 0 1 -0.4,-1.24 z"
     class="cls-1"
     inkscape:connector-curvature="0"
     style="fill:#ffffff;stroke-width:0.816607" /><path
     id="path3001"
     d="m 78.61,45.712562 v 0.59 a 2,2 0 0 0 -0.61,-0.39 1.81,1.81 0 0 0 -0.69,-0.14 1.38,1.38 0 0 0 -1.1,0.44 2.31,2.31 0 0 0 0,2.54 1.38,1.38 0 0 0 1.1,0.44 2,2 0 0 0 0.69,-0.13 2.07,2.07 0 0 0 0.61,-0.4 v 0.59 a 2,2 0 0 1 -0.63,0.3 2.34,2.34 0 0 1 -0.71,0.1 1.93,1.93 0 0 1 -1.49,-0.58 2.57,2.57 0 0 1 0,-3.18 1.93,1.93 0 0 1 1.49,-0.58 2.34,2.34 0 0 1 0.71,0.1 2,2 0 0 1 0.63,0.3 z"
     class="cls-1"
     inkscape:connector-curvature="0"
     style="fill:#ffffff;stroke-width:0.816607" /><path
     id="path3003"
     d="m 81.49,45.382562 h 0.57 v 4.19 h -0.57 z"
     class="cls-1"
     inkscape:connector-curvature="0"
     style="fill:#ffffff;stroke-width:0.816607" /><path
     id="path3005"
     d="m 86.9,45.312562 a 1.8,1.8 0 0 1 1.41,0.59 2.62,2.62 0 0 1 0,3.16 1.77,1.77 0 0 1 -1.41,0.59 1.8,1.8 0 0 1 -1.41,-0.58 2.27,2.27 0 0 1 -0.49,-1.59 2.24,2.24 0 0 1 0.53,-1.58 1.8,1.8 0 0 1 1.37,-0.59 z m 0,0.46 a 1.17,1.17 0 0 0 -1,0.46 2.35,2.35 0 0 0 0,2.5 1.27,1.27 0 0 0 2,0 2.35,2.35 0 0 0 0,-2.5 1.17,1.17 0 0 0 -1,-0.46 z"
     class="cls-1"
     inkscape:connector-curvature="0"
     style="fill:#ffffff;stroke-width:0.816607" /><path
     id="path3007"
     d="m 91.73,45.382562 h 0.77 l 1.86,3.51 v -3.51 h 0.54 v 4.19 h -0.76 l -1.86,-3.5 v 3.5 h -0.55 z"
     class="cls-1"
     inkscape:connector-curvature="0"
     style="fill:#ffffff;stroke-width:0.816607" /><path
     id="path3009"
     d="m 98,45.382562 h 2.65 v 0.48 h -2.04 v 1.24 h 2 v 0.48 h -2 v 1.52 h 2.13 v 0.47 H 98 Z"
     class="cls-1"
     inkscape:connector-curvature="0"
     style="fill:#ffffff;stroke-width:0.816607" /><path
     id="path3011"
     d="m 106.2,45.522562 v 0.55 a 3.91,3.91 0 0 0 -0.61,-0.23 2.18,2.18 0 0 0 -0.55,-0.07 1.24,1.24 0 0 0 -0.72,0.18 0.58,0.58 0 0 0 -0.25,0.51 0.54,0.54 0 0 0 0.17,0.42 1.51,1.51 0 0 0 0.63,0.23 l 0.34,0.07 a 1.75,1.75 0 0 1 0.94,0.42 1.13,1.13 0 0 1 0.3,0.82 1.1,1.1 0 0 1 -0.41,0.92 1.93,1.93 0 0 1 -1.2,0.31 3.7,3.7 0 0 1 -0.63,-0.06 5.24,5.24 0 0 1 -0.69,-0.2 v -0.59 a 3.55,3.55 0 0 0 0.67,0.3 2.48,2.48 0 0 0 0.65,0.09 1.22,1.22 0 0 0 0.75,-0.19 0.61,0.61 0 0 0 0.27,-0.54 0.62,0.62 0 0 0 -0.19,-0.48 1.23,1.23 0 0 0 -0.62,-0.26 l -0.35,-0.07 a 1.93,1.93 0 0 1 -0.92,-0.4 1,1 0 0 1 -0.28,-0.75 1.06,1.06 0 0 1 0.39,-0.87 1.62,1.62 0 0 1 1.08,-0.32 4,4 0 0 1 0.6,0 5.29,5.29 0 0 1 0.63,0.21 z"
     class="cls-1"
     inkscape:connector-curvature="0"
     style="fill:#ffffff;stroke-width:0.816607" /><path
     id="path3013"
     d="m 114.26,45.382562 h 0.65 l 1.59,4.19 h -0.59 l -0.38,-1.07 h -1.89 l -0.38,1.07 h -0.6 z m 0.32,0.56 -0.77,2.09 h 1.54 z"
     class="cls-1"
     inkscape:connector-curvature="0"
     style="fill:#ffffff;stroke-width:0.816607" /><path
     id="path3015"
     d="M 119.12,45.382562 H 120 l 1,2.87 1.07,-2.85 H 123 v 4.19 h -0.56 v -3.7 l -1.08,2.88 h -0.57 l -1.08,-2.88 v 3.68 h -0.55 z"
     class="cls-1"
     inkscape:connector-curvature="0"
     style="fill:#ffffff;stroke-width:0.816607" /><path
     id="path3017"
     d="m 126.09,45.382562 h 1.45 a 1.61,1.61 0 0 1 1,0.27 0.93,0.93 0 0 1 0.35,0.77 0.94,0.94 0 0 1 -0.18,0.61 0.77,0.77 0 0 1 -0.53,0.28 1.09,1.09 0 0 1 0.65,0.38 1.06,1.06 0 0 1 0.23,0.71 1,1 0 0 1 -0.38,0.87 1.69,1.69 0 0 1 -1.08,0.3 h -1.51 z m 0.57,0.47 v 1.26 h 0.84 a 1,1 0 0 0 0.62,-0.15 0.6,0.6 0 0 0 0.2,-0.48 0.56,0.56 0 0 0 -0.2,-0.47 1,1 0 0 0 -0.62,-0.16 z m 0,1.72 v 1.54 h 0.91 a 1.08,1.08 0 0 0 0.68,-0.19 0.75,0.75 0 0 0 0.22,-0.58 0.74,0.74 0 0 0 -0.22,-0.58 1.08,1.08 0 0 0 -0.68,-0.19 z"
     class="cls-1"
     inkscape:connector-curvature="0"
     style="fill:#ffffff;stroke-width:0.816607" /><path
     id="path3019"
     d="m 132.05,45.382562 h 0.56 v 4.19 h -0.56 z"
     class="cls-1"
     inkscape:connector-curvature="0"
     style="fill:#ffffff;stroke-width:0.816607" /><path
     id="path3021"
     d="m 135.75,45.382562 h 2.65 v 0.48 h -2.08 v 1.24 h 2 v 0.48 h -2 v 1.52 h 2.13 v 0.47 h -2.7 z"
     class="cls-1"
     inkscape:connector-curvature="0"
     style="fill:#ffffff;stroke-width:0.816607" /><path
     id="path3023"
     d="m 141.39,45.382562 h 0.77 l 1.84,3.51 v -3.51 h 0.55 v 4.19 h -0.77 l -1.86,-3.5 v 3.5 h -0.55 z"
     class="cls-1"
     inkscape:connector-curvature="0"
     style="fill:#ffffff;stroke-width:0.816607" /><path
     id="path3025"
     d="m 147.12,45.382562 h 3.55 v 0.48 h -1.49 v 3.71 h -0.57 v -3.71 h -1.49 z"
     class="cls-1"
     inkscape:connector-curvature="0"
     style="fill:#ffffff;stroke-width:0.816607" /><path
     id="path3027"
     d="m 153.86,45.382562 h 0.64 l 1.6,4.19 h -0.59 l -0.38,-1.07 h -1.89 l -0.38,1.07 h -0.6 z m 0.32,0.56 -0.77,2.09 H 155 Z"
     class="cls-1"
     inkscape:connector-curvature="0"
     style="fill:#ffffff;stroke-width:0.816607" /><path
     id="path3029"
     d="m 158.72,45.382562 h 0.57 v 3.72 h 2 v 0.47 h -2.61 z"
     class="cls-1"
     inkscape:connector-curvature="0"
     style="fill:#ffffff;stroke-width:0.816607" /><path
     id="path3031"
     d="m 163.93,45.382562 h 2.65 v 0.48 h -2.08 v 1.24 h 2 v 0.48 h -2 v 1.52 h 2.13 v 0.47 h -2.7 z"
     class="cls-1"
     inkscape:connector-curvature="0"
     style="fill:#ffffff;stroke-width:0.816607" /><path
     id="path3033"
     d="m 172.09,45.522562 v 0.55 a 3.91,3.91 0 0 0 -0.61,-0.23 2.18,2.18 0 0 0 -0.55,-0.07 1.24,1.24 0 0 0 -0.72,0.18 0.61,0.61 0 0 0 -0.25,0.51 0.54,0.54 0 0 0 0.17,0.42 1.51,1.51 0 0 0 0.63,0.23 l 0.34,0.07 a 1.75,1.75 0 0 1 0.94,0.42 1.13,1.13 0 0 1 0.3,0.82 1.1,1.1 0 0 1 -0.41,0.92 1.92,1.92 0 0 1 -1.19,0.31 3.72,3.72 0 0 1 -0.64,-0.06 5.24,5.24 0 0 1 -0.69,-0.2 v -0.59 a 3.55,3.55 0 0 0 0.67,0.3 2.56,2.56 0 0 0 0.66,0.09 1.21,1.21 0 0 0 0.74,-0.19 0.61,0.61 0 0 0 0.27,-0.54 0.59,0.59 0 0 0 -0.19,-0.48 1.19,1.19 0 0 0 -0.62,-0.26 l -0.35,-0.07 a 1.93,1.93 0 0 1 -0.92,-0.4 1,1 0 0 1 -0.28,-0.75 1.06,1.06 0 0 1 0.39,-0.87 1.62,1.62 0 0 1 1.08,-0.32 4,4 0 0 1 0.6,0 5.29,5.29 0 0 1 0.63,0.21 z"
     class="cls-1"
     inkscape:connector-curvature="0"
     style="fill:#ffffff;stroke-width:0.816607" /><path
     id="path3035"
     d="m 65,27.18 c -0.79,2.87 -2.71,7.56 -8.4,7.56 -5.49,0 -7.9,-4.26 -5.78,-14 1.54,-7.09 4.48,-12.4 10.18,-12.4 5.7,0 6.51,4.34 6.19,7.32 h -4.32 c 0,-1.27 0.21,-3.63 -2.3,-3.63 -2.51,0 -4.17,3.52 -5.3,9 -1.33,6.36 -1.19,10 1.7,10 2.21,0 3.29,-2.66 3.6,-3.84 z"
     class="cls-1"
     inkscape:connector-curvature="0"
     style="fill:#ffffff;stroke-width:0.816607" /><path
     id="path3037"
     d="m 80,29.53 c -0.36,1.73 -0.81,3.66 -1,4.77 h -4.22 c 0,-0.37 0.13,-1.13 0.26,-1.69 a 4.68,4.68 0 0 1 -4.23,2 c -3.9,0 -4.82,-3.34 -4.21,-6.39 0.76,-3.74 3.35,-5 6.71,-5.58 1.25,-0.22 2.55,-0.33 3.91,-0.44 l 0.33,-1.45 c 0.32,-1.52 0.3,-3.08 -1.79,-3.08 -1.47,0 -2.06,1 -2.43,2.4 H 69.2 c 0.7,-3.06 2.4,-5.6 7,-5.6 4.36,0 6.58,2.11 5.59,6.71 z m -3.41,-4.15 a 17.39,17.39 0 0 0 -2.56,0.35 c -1.56,0.38 -2.73,1.05 -3.07,2.61 -0.34,1.56 0,2.78 1.74,2.78 2,0 3.06,-1.55 3.64,-4.5 z"
     class="cls-1"
     inkscape:connector-curvature="0"
     style="fill:#ffffff;stroke-width:0.816607" /><path
     id="path3039"
     d="m 85.5,21.38 c 0.68,-3.2 1.12,-5.23 1.35,-6.6 H 91 c -0.11,0.82 -0.2,1.45 -0.54,3.17 a 5.92,5.92 0 0 1 5.72,-3.47 l -1,4.76 c -3.26,-0.21 -5,1.19 -5.92,5.28 l -2.11,9.78 h -4.39 z"
     class="cls-1"
     inkscape:connector-curvature="0"
     style="fill:#ffffff;stroke-width:0.816607" /><path
     id="path3041"
     d="m 100.19,7.49 h 4.39 l -2,9.19 A 5.17,5.17 0 0 1 107,14.47 c 3.87,0 5.45,3.46 4,10.18 -1.35,6.11 -3.76,10 -7.91,10 a 3.61,3.61 0 0 1 -3.76,-2.3 19.15,19.15 0 0 1 -0.55,2 h -4.33 c 0.3,-1.31 0.76,-3.52 1.2,-5.49 z m 6.41,17.14 c 0.91,-4.22 0.63,-6.5 -1.55,-6.5 -2.51,0 -3.42,2.47 -4.27,6.59 -1,4.7 -0.39,6.26 1.62,6.26 2.01,0 3.3,-2.14 4.2,-6.35 z"
     class="cls-1"
     inkscape:connector-curvature="0"
     style="fill:#ffffff;stroke-width:0.816607" /><path
     id="path3043"
     d="m 128.25,24.92 c -1,5.08 -3.46,9.69 -8.83,9.69 -5.09,0 -7,-3.83 -5.64,-10.4 1.2,-6 4.5,-9.74 8.74,-9.74 5.63,0 6.91,4.58 5.73,10.45 z m -10.17,-0.21 c -0.9,4.44 -0.28,6.31 1.71,6.31 1.99,0 3.24,-2.42 4.12,-6.43 0.76,-3.51 0.93,-6.49 -1.67,-6.49 -2.09,0 -3.52,3.44 -4.16,6.61 z"
     class="cls-1"
     inkscape:connector-curvature="0"
     style="fill:#ffffff;stroke-width:0.816607" /><path
     id="path3045"
     d="m 132.2,20.85 c 0.86,-4 1.09,-5.28 1.23,-6.07 h 4.3 c 0,0.43 -0.21,1.41 -0.33,2.06 a 5.18,5.18 0 0 1 4.6,-2.37 c 3.05,0 4.79,2 3.85,6.5 L 143,34.3 h -4.36 l 2.75,-13 c 0.44,-2 0,-3.16 -1.65,-3.16 -1.65,0 -2.77,1 -3.42,4.1 l -2.58,12.06 h -4.4 z"
     class="cls-1"
     inkscape:connector-curvature="0"
     style="fill:#ffffff;stroke-width:0.816607" /><path
     id="path3047"
     d="m 152.49,27.78 -2.69,6.52 h -4.48 l 11,-25.52 h 6 l 0.47,25.52 h -4.33 V 27.78 Z M 158.4,24 c 0,-4.83 0,-9.25 0.16,-11.73 h -0.11 C 157.68,14.67 156,19 154,24 Z"
     class="cls-1"
     inkscape:connector-curvature="0"
     style="fill:#ffffff;stroke-width:0.816607" /><path
     id="path3049"
     d="m 167.61,21.38 c 0.68,-3.2 1.12,-5.23 1.35,-6.6 h 4.16 c -0.11,0.82 -0.19,1.45 -0.54,3.17 a 5.93,5.93 0 0 1 5.73,-3.47 l -1.05,4.76 c -3.26,-0.21 -5,1.19 -5.92,5.28 l -2.07,9.78 h -4.4 z"
     class="cls-1"
     inkscape:connector-curvature="0"
     style="fill:#ffffff;stroke-width:0.816607" /><path
     id="path3051"
     d="m 190.11,32.35 c -1.16,5.42 -2.89,9.3 -8.8,9.3 -5.7,0 -6.31,-3.9 -6,-6 h 4.1 a 2.12,2.12 0 0 0 2.23,2.48 c 2.48,0 3.29,-2 3.92,-4.84 l 0.33,-1.49 a 4.87,4.87 0 0 1 -4.25,2.2 c -4.11,0 -5.37,-3.86 -4.19,-9.58 1.35,-6.53 4.19,-9.92 7.93,-9.92 2.39,0 3.35,1.19 3.7,2.23 0.16,-0.65 0.44,-1.64 0.56,-1.92 h 4.26 c -0.29,1.18 -0.72,3.15 -1.31,5.87 z m -8.26,-7.83 c -0.94,4.43 0,5.86 1.75,5.86 1.75,0 3.07,-1.64 4,-5.95 1,-4.52 0.77,-6.33 -1.6,-6.33 -1.72,0 -3.21,2.01 -4.15,6.42 z"
     class="cls-1"
     inkscape:connector-curvature="0"
     style="fill:#ffffff;stroke-width:0.816607" /><path
     id="path3053"
     d="M 27.53,1.82 A 25,25 0 0 1 17.85,15.21 C 10.23,20.33 1.25,27.54 4.23,32.21 2.35,29.93 0.5,25.5 0.84,24 1.18,22.5 6.73,7.23 20.48,4 10.47,5.26 4.26,11.73 0.09,22.36 -0.68,12 3.54,5.62 8.14,2.84 12.74,0.06 21.8,-1.37 27.53,1.82 Z"
     class="cls-1"
     inkscape:connector-curvature="0"
     style="fill:#ffffff;stroke-width:0.816607" /><path
     id="path3055"
     d="m 18,37.53 a 32.57,32.57 0 0 0 5.06,4.56 l 0.31,-1.35 -4.35,-3.86 a 32.28,32.28 0 0 1 -1,-7 C 18,27.3 16.9,21.28 14.72,18 c 0,0 -1.92,1.3 -2.29,1.63 L 10,21.72 c 0,0 2.77,7.71 4.87,11.28 A 28.36,28.36 0 0 0 18,37.53 Z"
     class="cls-1"
     inkscape:connector-curvature="0"
     style="fill:#ffffff;stroke-width:0.816607" /><path
     id="path3057"
     d="m 9.28,22.42 c 0,0 -6.64,5.58 -4.61,9.9 C 8,36.42 12.35,37 16.36,37.5 A 47.11,47.11 0 0 1 9.28,22.42 Z"
     class="cls-1"
     inkscape:connector-curvature="0"
     style="fill:#ffffff;stroke-width:0.816607" /><path
     id="path3059"
     d="m 39.18,24.87 c 0,-2.38 -1.32,-4 -2.74,-5.86 A 19,19 0 0 1 24.07,36.81 L 23.8,38.38 A 19,19 0 0 0 39.18,24.87 Z"
     class="cls-1"
     inkscape:connector-curvature="0"
     style="fill:#ffffff;stroke-width:0.816607" /><path
     id="path3061"
     d="m 39.18,24.87 a 20.08,20.08 0 0 0 0.49,-2.1 19,19 0 0 0 -9.84,-20 L 29.57,4.34 A 19,19 0 0 1 36.44,19 c 1.42,1.84 2.79,3.49 2.74,5.87 z"
     class="cls-1"
     inkscape:connector-curvature="0"
     style="fill:#ffffff;stroke-width:0.816607" /></g></svg>